<?xml version="1.0" encoding="UTF-8"?>
<svg version="1.1" xmlns="http://www.w3.org/2000/svg" width="500" height="500">
<path d="M0 0 C165 0 330 0 500 0 C500 165 500 330 500 500 C335 500 170 500 0 500 C0 335 0 170 0 0 Z " fill="#FFFEFE" transform="translate(0,0)"/>
<path d="M0 0 C1.12341797 -0.00160126 1.12341797 -0.00160126 2.26953125 -0.00323486 C15.64506495 0.02417985 27.94449733 1.65189542 40.8125 5.4375 C41.59399414 5.65148437 42.37548828 5.86546875 43.18066406 6.0859375 C67.89350501 12.89747342 88.57707758 26.83262469 106.8125 44.4375 C107.46605469 45.02789062 108.11960937 45.61828125 108.79296875 46.2265625 C118.96824054 55.65258625 126.354916 68.30463843 132.8125 80.4375 C133.35648437 81.44425781 133.90046875 82.45101562 134.4609375 83.48828125 C151.72502384 116.57047715 153.52719442 156.98800219 142.8125 192.4375 C130.12897335 232.12185738 102.62415735 263.39126234 65.8125 282.4375 C37.55931496 296.29189039 3.6397532 300.46440119 -27.1875 294.4375 C-28.14897949 294.26009277 -28.14897949 294.26009277 -29.12988281 294.07910156 C-46.65846124 290.77198139 -63.15230201 283.99376991 -78.1875 274.4375 C-79.27289063 273.75042969 -80.35828125 273.06335938 -81.4765625 272.35546875 C-89.2917053 267.17956869 -96.07954026 261.29049888 -102.79492188 254.77880859 C-103.9646704 253.65212584 -105.15929438 252.55134937 -106.359375 251.45703125 C-124.92645722 234.07916297 -136.77096144 209.72489389 -143.1875 185.4375 C-143.37086914 184.76783203 -143.55423828 184.09816406 -143.74316406 183.40820312 C-151.00403254 156.06016044 -149.05701699 124.92901601 -139.1875 98.4375 C-138.93484375 97.7470459 -138.6821875 97.0565918 -138.421875 96.34521484 C-131.06433452 76.53125013 -119.67320024 59.8170547 -105.1875 44.4375 C-104.61128906 43.79683594 -104.03507812 43.15617187 -103.44140625 42.49609375 C-86.09835027 23.99425897 -61.33683272 10.34676673 -36.6875 4.8125 C-35.81480469 4.60882813 -34.94210938 4.40515625 -34.04296875 4.1953125 C-32.28327712 3.78862821 -30.52125317 3.39190861 -28.75708008 3.00512695 C-27.12452342 2.64449092 -25.49594607 2.26492165 -23.8737793 1.86010742 C-15.98461397 0.01982554 -8.05636585 -0.00244052 0 0 Z " fill="#FDDEE7" transform="translate(249.1875,101.5625)"/>
<path d="M0 0 C0.99 0.99 0.99 0.99 2 2 C1.99112338 10.49492075 -1.50936877 17.59282302 -4.9375 25.1875 C-5.52467056 26.51209462 -6.11084259 27.8371323 -6.69604492 29.16259766 C-8.44670483 33.11626526 -10.22126433 37.0589022 -12 41 C-12.52561523 42.16837402 -13.05123047 43.33674805 -13.59277344 44.54052734 C-16.3697036 50.70553025 -19.17178291 56.85836379 -22 63 C-16.06 62.67 -10.12 62.34 -4 62 C-3.37544922 60.71013184 -2.75089844 59.42026367 -2.10742188 58.09130859 C0.24344561 53.23946115 2.60079122 48.39078399 4.95996094 43.54296875 C5.97406045 41.45689467 6.98647446 39.37000024 7.99707031 37.28222656 C13.63904285 25.62959813 19.33066472 14.10507242 26 3 C26.66 3 27.32 3 28 3 C26.50572314 7.84507952 24.55504884 12.31351335 22.375 16.875 C21.84495361 17.99201294 21.84495361 17.99201294 21.30419922 19.1315918 C18.0048064 26.05300099 14.58421431 32.91129133 11.12988281 39.75634766 C8.90940928 44.1656285 6.70640709 48.5836687 4.5 53 C3.63547916 54.72919791 2.77090128 56.45836731 1.90625 58.1875 C1.53822266 58.92355469 1.17019531 59.65960938 0.79101562 60.41796875 C0.39946289 61.20107422 0.39946289 61.20107422 0 62 C0.96711914 61.99476318 1.93423828 61.98952637 2.93066406 61.98413086 C6.57616217 61.96580215 10.22165636 61.95446793 13.8671875 61.94506836 C15.4342518 61.940091 17.00131158 61.93330671 18.56835938 61.92456055 C27.76855053 61.87455951 36.83875192 62.00853745 46 63 C46 63.33 46 63.66 46 64 C22.735 64.495 22.735 64.495 -1 65 C-5.15467809 74.16462198 -5.15467809 74.16462198 -9.28637695 83.33959961 C-9.80675537 84.47405518 -10.32713379 85.60851074 -10.86328125 86.77734375 C-11.39219971 87.94515381 -11.92111816 89.11296387 -12.46606445 90.31616211 C-14 93 -14 93 -17 94 C-14.8197371 87.12052968 -12.19745965 80.54944102 -9.3125 73.9375 C-8.89677734 72.97650391 -8.48105469 72.01550781 -8.05273438 71.02539062 C-7.03848513 68.68212514 -6.02085998 66.34039113 -5 64 C-5.58426758 64.16298584 -6.16853516 64.32597168 -6.77050781 64.49389648 C-10.07883712 65.24490028 -13.37737159 65.10394061 -16.75 65.0625 C-17.44738281 65.05798828 -18.14476562 65.05347656 -18.86328125 65.04882812 C-20.57555803 65.0371002 -22.28779033 65.01916653 -24 65 C-24.22816406 65.78761719 -24.45632813 66.57523437 -24.69140625 67.38671875 C-26.3918855 72.08207192 -28.62045385 76.39573526 -30.9375 80.8125 C-31.38029297 81.68326172 -31.82308594 82.55402344 -32.27929688 83.45117188 C-32.92801758 84.69157227 -32.92801758 84.69157227 -33.58984375 85.95703125 C-33.98034912 86.70960205 -34.37085449 87.46217285 -34.77319336 88.23754883 C-36 90 -36 90 -39 91 C-38.42266085 85.3365779 -36.29383632 80.72836052 -33.9375 75.625 C-33.56044922 74.79355469 -33.18339844 73.96210938 -32.79492188 73.10546875 C-31.86960518 71.06742944 -30.93566355 69.03330985 -30 67 C-34.95 67.33 -39.9 67.66 -45 68 C-44.67 67.34 -44.34 66.68 -44 66 C-42.21082345 65.82508639 -40.42082014 65.65602407 -38.62817383 65.52124023 C-32.02170123 64.93845027 -32.02170123 64.93845027 -26.54199219 61.55566406 C-24.08243672 58.01669234 -22.4547089 54.13500311 -20.88476562 50.13891602 C-19.90278921 47.76499346 -18.77817658 45.50052019 -17.61328125 43.2109375 C-11.00695064 30.16390153 -4.18336902 16.58378535 -2 2 C-16.04910134 5.51227533 -27.93804893 15.16803781 -38.52587891 24.68164062 C-39.96348561 25.96734387 -41.42488399 27.22628717 -42.88671875 28.484375 C-48.2447703 33.14627095 -52.70910378 37.12731133 -55 44 C-55.845625 44.5775 -56.69125 45.155 -57.5625 45.75 C-60.41493075 47.87443528 -60.41493075 47.87443528 -60.3125 51.75 C-60.209375 52.8225 -60.10625 53.895 -60 55 C-58.35 55.66 -56.7 56.32 -55 57 C-54.67 53.37 -54.34 49.74 -54 46 C-53.01 46 -52.02 46 -51 46 C-50.9729957 47.45823212 -50.95360213 48.91660675 -50.9375 50.375 C-50.92589844 51.18710937 -50.91429687 51.99921875 -50.90234375 52.8359375 C-51 55 -51 55 -52 57 C-47.71 56.34 -43.42 55.68 -39 55 C-42.43772727 58.43772727 -46.10960984 58.97127774 -50.875 59.125 C-51.90625 59.08375 -52.9375 59.0425 -54 59 C-54.2475 59.598125 -54.495 60.19625 -54.75 60.8125 C-56.27404105 63.47957184 -57.26745935 64.56182071 -60 66 C-64.75969669 66.52885519 -66.85059054 66.74961486 -70.875 64.125 C-72.25 62.75 -73.625 61.375 -75 60 C-75.58007812 60.433125 -76.16015625 60.86625 -76.7578125 61.3125 C-83.16243655 65.87817259 -83.16243655 65.87817259 -87.4375 66.5 C-90 66 -90 66 -92 64 C-91.80282433 58.94385248 -90.17159246 56.48919866 -86.75 52.875 C-85.98171875 52.04742187 -85.2134375 51.21984375 -84.421875 50.3671875 C-82 48 -82 48 -79.30078125 46.0625 C-76.44644429 43.50377349 -76.11576929 41.85310951 -75.4375 38.125 C-74.12792756 32.02358296 -72.43754227 28.43754227 -68 24 C-65.90625 23.734375 -65.90625 23.734375 -63.5 23.75 C-62.7059375 23.74484375 -61.911875 23.7396875 -61.09375 23.734375 C-59 24 -59 24 -57 26 C-56.74952669 29.06829809 -56.75691399 30.26108436 -58 33 C-61.67091016 37.00281885 -65.78485885 40.52698736 -70.30859375 43.53515625 C-70.86675781 44.01855469 -71.42492187 44.50195312 -72 45 C-72.33380814 48.62563814 -72.33380814 48.62563814 -72 52 C-65.34965317 48.27391915 -61.04103448 43.89617786 -56.36328125 37.92578125 C-46.48073639 25.69102737 -34.01156239 16.2508094 -21.0625 7.5 C-20.46018555 7.09064209 -19.85787109 6.68128418 -19.23730469 6.25952148 C-13.12638516 2.22249316 -7.5681216 -0.74197271 0 0 Z " fill="#131112" transform="translate(309,210)"/>
<path d="M0 0 C0.7940625 0.00515625 1.588125 0.0103125 2.40625 0.015625 C3.2003125 0.01046875 3.994375 0.0053125 4.8125 0 C6.90625 0.265625 6.90625 0.265625 8.90625 2.265625 C9.15672331 5.33392309 9.14933601 6.52670936 7.90625 9.265625 C4.23533984 13.26844385 0.12139115 16.79261236 -4.40234375 19.80078125 C-4.96050781 20.28417969 -5.51867187 20.76757812 -6.09375 21.265625 C-6.42755814 24.89126314 -6.42755814 24.89126314 -6.09375 28.265625 C0.4313281 24.308152 0.4313281 24.308152 5.78125 18.953125 C7.90625 16.265625 7.90625 16.265625 10.90625 15.265625 C11.40125 17.245625 11.40125 17.245625 11.90625 19.265625 C10.91625 19.94625 9.92625 20.626875 8.90625 21.328125 C7.20669266 22.63218229 7.20669266 22.63218229 5.90625 24.265625 C5.40428706 27.97636005 5.40428706 27.97636005 5.90625 31.265625 C8.38125 32.255625 8.38125 32.255625 10.90625 33.265625 C11.23625 29.635625 11.56625 26.005625 11.90625 22.265625 C12.89625 22.265625 13.88625 22.265625 14.90625 22.265625 C14.9332543 23.72385712 14.95264787 25.18223175 14.96875 26.640625 C14.98035156 27.45273437 14.99195313 28.26484375 15.00390625 29.1015625 C14.90625 31.265625 14.90625 31.265625 13.90625 33.265625 C18.19625 32.605625 22.48625 31.945625 26.90625 31.265625 C23.46852273 34.70335227 19.79664016 35.23690274 15.03125 35.390625 C14 35.349375 12.96875 35.308125 11.90625 35.265625 C11.65875 35.86375 11.41125 36.461875 11.15625 37.078125 C9.63220895 39.74519684 8.63879065 40.82744571 5.90625 42.265625 C1.14655331 42.79448019 -0.94434054 43.01523986 -4.96875 40.390625 C-6.34375 39.015625 -7.71875 37.640625 -9.09375 36.265625 C-9.67382812 36.69875 -10.25390625 37.131875 -10.8515625 37.578125 C-17.25618655 42.14379759 -17.25618655 42.14379759 -21.53125 42.765625 C-24.09375 42.265625 -24.09375 42.265625 -26.09375 40.265625 C-25.89657433 35.20947748 -24.26534246 32.75482366 -20.84375 29.140625 C-20.07546875 28.31304687 -19.3071875 27.48546875 -18.515625 26.6328125 C-16.09375 24.265625 -16.09375 24.265625 -13.39453125 22.328125 C-10.54019429 19.76939849 -10.20951929 18.11873451 -9.53125 14.390625 C-8.41146854 9.1734614 -6.34581613 0.80506623 0 0 Z " fill="#110F10" transform="translate(243.09375,233.734375)"/>
<path d="M0 0 C2.37269227 2.03280247 3.13217675 3.57140376 3.54296875 6.65234375 C-1.34066354 17.97349132 -15.29953833 22.24738494 -25.83203125 26.83984375 C-27.22808594 27.4740625 -27.22808594 27.4740625 -28.65234375 28.12109375 C-34.84143084 30.79512441 -41.3493007 32.4558978 -47.85375977 34.17871094 C-51.64767085 34.91173076 -51.64767085 34.91173076 -54.83203125 36.83984375 C-54.27207962 36.99382629 -53.71212799 37.14780884 -53.13520813 37.30645752 C-47.2446815 38.92672603 -41.35492156 40.54975971 -35.46557617 42.17431641 C-33.27501178 42.77819911 -31.08426048 43.38140428 -28.89331055 43.98388672 C-8.60072035 49.56492749 -8.60072035 49.56492749 0.125 52.13671875 C1.10057861 52.42385742 2.07615723 52.71099609 3.08129883 53.00683594 C5.16796875 53.83984375 5.16796875 53.83984375 6.16796875 55.83984375 C0.44751748 54.60095129 -5.23590847 53.27335345 -10.89453125 51.77734375 C-11.66893555 51.57326904 -12.44333984 51.36919434 -13.24121094 51.15893555 C-29.15890178 46.92335916 -44.99609017 42.36963009 -60.83203125 37.83984375 C-61.1038623 38.70496582 -61.37569336 39.57008789 -61.65576172 40.46142578 C-62.79778457 43.74148229 -64.13870904 46.77064686 -65.65234375 49.89453125 C-66.18730469 51.003125 -66.72226563 52.11171875 -67.2734375 53.25390625 C-67.82902344 54.39601563 -68.38460937 55.538125 -68.95703125 56.71484375 C-69.80201172 58.4628125 -69.80201172 58.4628125 -70.6640625 60.24609375 C-72.05015886 63.11225909 -73.43957647 65.97676353 -74.83203125 68.83984375 C-75.49203125 68.83984375 -76.15203125 68.83984375 -76.83203125 68.83984375 C-76.19790697 64.62720192 -74.75494668 61.26445691 -72.890625 57.4453125 C-72.60349136 56.85309402 -72.31635773 56.26087555 -72.02052307 55.65071106 C-71.10889126 53.77358681 -70.18936001 51.90046272 -69.26953125 50.02734375 C-68.64725931 48.74960555 -68.02550893 47.47161321 -67.40429688 46.19335938 C-65.88623282 43.07255703 -64.36106314 39.95528982 -62.83203125 36.83984375 C-63.49203125 36.83984375 -64.15203125 36.83984375 -64.83203125 36.83984375 C-64.83203125 36.17984375 -64.83203125 35.51984375 -64.83203125 34.83984375 C-63.51203125 34.83984375 -62.19203125 34.83984375 -60.83203125 34.83984375 C-60.42102173 33.52753784 -60.42102173 33.52753784 -60.00170898 32.1887207 C-58.14609782 26.8759638 -55.48702337 22.01195701 -52.89453125 17.02734375 C-52.35634766 15.96580078 -51.81816406 14.90425781 -51.26367188 13.81054688 C-50.74095703 12.80314453 -50.21824219 11.79574219 -49.6796875 10.7578125 C-49.20539307 9.83766357 -48.73109863 8.91751465 -48.24243164 7.96948242 C-46.83203125 5.83984375 -46.83203125 5.83984375 -43.83203125 4.83984375 C-44.43835042 8.8013384 -45.68000529 11.82707904 -47.5546875 15.359375 C-48.09287109 16.38095703 -48.63105469 17.40253906 -49.18554688 18.45507812 C-50.03149414 20.03772461 -50.03149414 20.03772461 -50.89453125 21.65234375 C-51.46236328 22.72677734 -52.03019531 23.80121094 -52.61523438 24.90820312 C-54.01517543 27.5551505 -55.42093237 30.19883274 -56.83203125 32.83984375 C-40.30121178 32.83984375 -16.99216798 21.56243989 -3.83203125 11.83984375 C-1.42081266 9.883504 -1.42081266 9.883504 -1.70703125 6.21484375 C-1.74828125 5.10109375 -1.78953125 3.98734375 -1.83203125 2.83984375 C-11.67963698 -3.95969354 -23.05125629 -4.42450527 -34.64453125 -4.47265625 C-35.61068359 -4.47813477 -36.57683594 -4.48361328 -37.57226562 -4.48925781 C-47.98517157 -4.38548658 -57.61641302 -2.15194946 -66.83203125 2.83984375 C-65.4728832 -0.47481322 -64.35265994 -1.82198026 -61.08203125 -3.28515625 C-43.98079417 -10.20189864 -15.91436183 -10.07796474 0 0 Z " fill="#262223" transform="translate(225.83203125,226.16015625)"/>
<path d="M0 0 C0.66 0 1.32 0 2 0 C0.50572314 4.84507952 -1.44495116 9.31351335 -3.625 13.875 C-4.15504639 14.99201294 -4.15504639 14.99201294 -4.69580078 16.1315918 C-7.9951936 23.05300099 -11.41578569 29.91129133 -14.87011719 36.75634766 C-17.09059072 41.1656285 -19.29359291 45.5836687 -21.5 50 C-22.36452084 51.72919791 -23.22909872 53.45836731 -24.09375 55.1875 C-24.46177734 55.92355469 -24.82980469 56.65960938 -25.20898438 57.41796875 C-25.47001953 57.94003906 -25.73105469 58.46210938 -26 59 C-25.03288086 58.99476318 -24.06576172 58.98952637 -23.06933594 58.98413086 C-19.42383783 58.96580215 -15.77834364 58.95446793 -12.1328125 58.94506836 C-10.5657482 58.940091 -8.99868842 58.93330671 -7.43164062 58.92456055 C1.76855053 58.87455951 10.83875192 59.00853745 20 60 C20 60.33 20 60.66 20 61 C4.49 61.33 -11.02 61.66 -27 62 C-31.15467809 71.16462198 -31.15467809 71.16462198 -35.28637695 80.33959961 C-35.80675537 81.47405518 -36.32713379 82.60851074 -36.86328125 83.77734375 C-37.39219971 84.94515381 -37.92111816 86.11296387 -38.46606445 87.31616211 C-40 90 -40 90 -43 91 C-40.8197371 84.12052968 -38.19745965 77.54944102 -35.3125 70.9375 C-34.89677734 69.97650391 -34.48105469 69.01550781 -34.05273438 68.02539062 C-33.03848513 65.68212514 -32.02085998 63.34039113 -31 61 C-31.88993652 61.24447876 -31.88993652 61.24447876 -32.79785156 61.49389648 C-35.80883113 62.18588769 -38.66517839 62.09334822 -41.75 62.0625 C-42.92046875 62.05347656 -44.0909375 62.04445313 -45.296875 62.03515625 C-46.18890625 62.02355469 -47.0809375 62.01195312 -48 62 C-47.67 61.34 -47.34 60.68 -47 60 C-38.585 59.505 -38.585 59.505 -30 59 C-29.37544922 57.71013184 -28.75089844 56.42026367 -28.10742188 55.09130859 C-25.75655439 50.23946115 -23.39920878 45.39078399 -21.04003906 40.54296875 C-20.02593955 38.45689467 -19.01352554 36.37000024 -18.00292969 34.28222656 C-12.36095715 22.62959813 -6.66933528 11.10507242 0 0 Z " fill="#3A3335" transform="translate(335,213)"/>
<path d="M0 0 C2 2 2 2 2.08203125 4.0234375 C1.15680012 12.09574389 1.15680012 12.09574389 -2 15 C-2.66 15 -3.32 15 -4 15 C-3.39174965 10.65535464 -2.73832608 6.32448133 -2 2 C-16.73281174 5.68320294 -28.93428214 16.04085392 -40 26 C-40.94101562 26.83144531 -41.88203125 27.66289062 -42.8515625 28.51953125 C-46.3306038 31.61372285 -49.7686139 34.70899757 -53 38.0625 C-55 40 -55 40 -57 40 C-55.40313275 36.07282065 -52.71519919 33.36984248 -49.75 30.4375 C-49.22059814 29.9130127 -48.69119629 29.38852539 -48.14575195 28.84814453 C-39.85087654 20.78929724 -30.62853724 13.96808808 -21.0625 7.5 C-20.46010498 7.09056152 -19.85770996 6.68112305 -19.23706055 6.25927734 C-13.12606961 2.22248881 -7.56809169 -0.74196977 0 0 Z " fill="#1A1718" transform="translate(309,210)"/>
<path d="M0 0 C0.66 0 1.32 0 2 0 C0.50572159 4.84508453 -1.44496806 9.31350011 -3.625 13.875 C-4.15395874 14.98983765 -4.15395874 14.98983765 -4.69360352 16.12719727 C-8.00867265 23.08199586 -11.44604691 29.97332779 -14.91748047 36.85107422 C-16.95496551 40.89571638 -18.97607834 44.94855896 -21 49 C-21.77077096 50.54169785 -22.54159858 52.08336738 -23.3125 53.625 C-23.869375 54.73875 -24.42625 55.8525 -25 57 C-25.99 57 -26.98 57 -28 57 C-26.5788373 52.41543441 -24.74976246 48.13690636 -22.65625 43.828125 C-22.16771545 42.81373604 -22.16771545 42.81373604 -21.66931152 41.77885437 C-20.61749942 39.60029463 -19.55933473 37.4249107 -18.5 35.25 C-18.14228516 34.51266632 -17.78457031 33.77533264 -17.41601562 33.01565552 C-11.96961496 21.80124643 -6.29834147 10.76471343 0 0 Z " fill="#211D1F" transform="translate(335,213)"/>
<path d="M0 0 C2 2 2 2 2.25 5.375 C2 9 2 9 0 13 C-3.3 12.01 -6.6 11.02 -10 10 C-11 5 -11 5 -9.6875 2.25 C-6.70262922 -1.7298277 -4.60765587 -1.05592114 0 0 Z " fill="#272224" transform="translate(141,209)"/>
<path d="M0 0 C-3 2 -3 2 -5.546875 1.5390625 C-6.60390625 1.23742187 -7.6609375 0.93578125 -8.75 0.625 C-15.49537937 -0.95759683 -21.89118204 -1.31360883 -28.8125 -1.3125 C-29.77833008 -1.31749512 -30.74416016 -1.32249023 -31.73925781 -1.32763672 C-42.15138779 -1.2292741 -51.78583716 1.00899513 -61 6 C-59.64085195 2.68534303 -58.52062869 1.33817599 -55.25 -0.125 C-38.52157461 -6.89095549 -16.89842308 -5.37677098 0 0 Z " fill="#302A2C" transform="translate(220,223)"/>
<path d="M0 0 C7.3028169 -0.35915493 7.3028169 -0.35915493 10.0625 1.0625 C11.53779675 4.11144662 10.58114372 6.74559516 10 10 C10.33 10.99 10.66 11.98 11 13 C9.0625 12.625 9.0625 12.625 7 12 C6.67 11.34 6.34 10.68 6 10 C5.01 9.67 4.02 9.34 3 9 C3 9.99 3 10.98 3 12 C2.01 12 1.02 12 0 12 C0 8.04 0 4.08 0 0 Z " fill="#211D1E" transform="translate(248,128)"/>
<path d="M0 0 C0.99 0 1.98 0 3 0 C5.42857143 8.42857143 5.42857143 8.42857143 4 13 C3.34 12.34 2.68 11.68 2 11 C2 9.68 2 8.36 2 7 C1.34 7 0.68 7 0 7 C-0.33 8.98 -0.66 10.96 -1 13 C-1.639375 12.67 -2.27875 12.34 -2.9375 12 C-4.76794567 10.92728775 -4.76794567 10.92728775 -6 11 C-6 12.32 -6 13.64 -6 15 C-6.99 14.67 -7.98 14.34 -9 14 C-9.73046875 12.2578125 -9.73046875 12.2578125 -10.1875 10.125 C-10.34605469 9.42632812 -10.50460937 8.72765625 -10.66796875 8.0078125 C-11 6 -11 6 -11 3 C-7.20411134 3.54226981 -5.52788007 5.20127563 -3 8 C-2.01 5.36 -1.02 2.72 0 0 Z " fill="#1D1A1B" transform="translate(284,352)"/>
<path d="M0 0 C0.66 0.33 1.32 0.66 2 1 C2 3.97 2 6.94 2 10 C4.64 9.01 7.28 8.02 10 7 C10.33 7.99 10.66 8.98 11 10 C9.85546875 12.04296875 9.85546875 12.04296875 8.1875 14.1875 C7.64480469 14.90292969 7.10210937 15.61835938 6.54296875 16.35546875 C6.03378906 16.89816406 5.52460938 17.44085938 5 18 C4.34 18 3.68 18 3 18 C3.50603992 15.83125748 3.99983813 14.00032373 5 12 C3.02 12.33 1.04 12.66 -1 13 C-1.33 11.68 -1.66 10.36 -2 9 C-2.66 9.66 -3.32 10.32 -4 11 C-4.99 11 -5.98 11 -7 11 C-5.22054913 6.95579349 -2.60470327 3.53921513 0 0 Z " fill="#121011" transform="translate(178,330)"/>
<path d="M0 0 C3.52032428 3.52032428 3.73502079 5.14204781 4 10 C3.34 10.66 2.68 11.32 2 12 C1.195625 11.979375 0.39125 11.95875 -0.4375 11.9375 C-3.06287821 11.73718542 -3.06287821 11.73718542 -4.8125 13.5 C-5.204375 13.995 -5.59625 14.49 -6 15 C-5.67 12.36 -5.34 9.72 -5 7 C-6.32 7.33 -7.64 7.66 -9 8 C-9.33 7.01 -9.66 6.02 -10 5 C-6.7 3.35 -3.4 1.7 0 0 Z " fill="#181516" transform="translate(360,194)"/>
<path d="M0 0 C1.05686665 7.54904748 1.05686665 7.54904748 -1.3828125 10.8984375 C-4.65165639 13.79935956 -7.51310606 15.72806703 -12 16 C-12.08940246 11.79808422 -11.6912335 9.85324135 -9 6.53125 C-2.55142405 0 -2.55142405 0 0 0 Z " fill="#EFD2DB" transform="translate(233,258)"/>
<path d="M0 0 C3 1 3 1 4.1875 2.875 C5 5 5 5 5 8 C5.66 8 6.32 8 7 8 C7.33 6.35 7.66 4.7 8 3 C8.99 3 9.98 3 11 3 C10.33501617 7.38889325 8.81242323 10.9811485 7 15 C6.01 14.67 5.02 14.34 4 14 C2.3125 10.4375 2.3125 10.4375 1 7 C0.34 8.65 -0.32 10.3 -1 12 C-1.99 12 -2.98 12 -4 12 C-3.52309796 10.37433394 -3.04340334 8.74948689 -2.5625 7.125 C-2.29566406 6.22007812 -2.02882812 5.31515625 -1.75390625 4.3828125 C-1 2 -1 2 0 0 Z " fill="#181516" transform="translate(209,349)"/>
<path d="M0 0 C0.99 0 1.98 0 3 0 C4.38671875 1.64453125 4.38671875 1.64453125 5.6875 3.8125 C6.34298828 4.87404297 6.34298828 4.87404297 7.01171875 5.95703125 C8 8 8 8 8 11 C6.88625 10.835 5.7725 10.67 4.625 10.5 C1.27967967 9.9544542 1.27967967 9.9544542 -1 10 C-0.34 11.65 0.32 13.3 1 15 C0.01 15.33 -0.98 15.66 -2 16 C-3.98 12.37 -5.96 8.74 -8 5 C-3.59232396 3.89808099 -2.1077065 4.41293158 2 6 C1.34 4.02 0.68 2.04 0 0 Z " fill="#171415" transform="translate(313,339)"/>
<path d="M0 0 C0.309375 1.423125 0.309375 1.423125 0.625 2.875 C1.70833333 6.29166667 1.70833333 6.29166667 5.125 7.375 C6.07375 7.58125 7.0225 7.7875 8 8 C4.87037037 12.81481481 4.87037037 12.81481481 1.0625 13.625 C-3.00155664 12.79560069 -4.5354605 11.28605266 -7 8 C-7.125 5.9375 -7.125 5.9375 -6 4 C-1.55555556 0 -1.55555556 0 0 0 Z " fill="#F3D6DE" transform="translate(245,261)"/>
<path d="M0 0 C0 0.99 0 1.98 0 3 C-2.31 3 -4.62 3 -7 3 C-7 3.66 -7 4.32 -7 5 C-5.02 5 -3.04 5 -1 5 C-1 5.99 -1 6.98 -1 8 C-2.65 8 -4.3 8 -6 8 C-6 8.66 -6 9.32 -6 10 C-3.69 10 -1.38 10 1 10 C1 10.99 1 11.98 1 13 C-2.3 13 -5.6 13 -9 13 C-9.33 9.04 -9.66 5.08 -10 1 C-6.41220825 0.10305206 -3.65381163 -0.08304117 0 0 Z " fill="#2E282A" transform="translate(268,356)"/>
<path d="M0 0 C1.67542976 0.28604898 3.34385343 0.61781233 5 1 C5.4375 3.0625 5.4375 3.0625 5 6 C1.93179886 9.93879265 -1.43450236 12.94956632 -6 15 C-5.57429438 8.82726847 -4.57782148 4.57782148 0 0 Z " fill="#F3D5DE" transform="translate(243,236)"/>
<path d="M0 0 C2.125 0.375 2.125 0.375 4 1 C5.13764351 5.26616316 6 8.56486311 6 13 C5.01 13 4.02 13 3 13 C3 12.01 3 11.02 3 10 C-0.54865136 9.91934883 -3.58389775 10.05685873 -7 11 C-6.21258141 9.53936857 -5.4199095 8.08156827 -4.625 6.625 C-4.18414062 5.81289063 -3.74328125 5.00078125 -3.2890625 4.1640625 C-2 2 -2 2 0 0 Z " fill="#151314" transform="translate(229,355)"/>
<path d="M0 0 C0.66 0.33 1.32 0.66 2 1 C2 5.62 2 10.24 2 15 C1.01 14.67 0.02 14.34 -1 14 C-1.66666667 12.66666667 -2.33333333 11.33333333 -3 10 C-6.10540926 8.78918149 -6.10540926 8.78918149 -10 9 C-6.83047153 5.73991357 -3.60062011 2.77762123 0 0 Z " fill="#3F383A" transform="translate(198,343)"/>
<path d="M0 0 C0.99 0 1.98 0 3 0 C3.0270043 1.45823212 3.04639787 2.91660675 3.0625 4.375 C3.07410156 5.18710937 3.08570313 5.99921875 3.09765625 6.8359375 C3 9 3 9 2 11 C6.29 10.34 10.58 9.68 15 9 C11.56227273 12.43772727 7.89039016 12.97127774 3.125 13.125 C2.09375 13.08375 1.0625 13.0425 0 13 C-0.268125 13.61875 -0.53625 14.2375 -0.8125 14.875 C-2 17 -2 17 -5 19 C-5 16 -5 16 -3 14 C-4.32 13.34 -5.64 12.68 -7 12 C-5.02 11.67 -3.04 11.34 -1 11 C-0.67 7.37 -0.34 3.74 0 0 Z " fill="#262122" transform="translate(255,256)"/>
<path d="M0 0 C4.61513112 1.31860889 8.09897612 3.21355437 12 6 C11.67 6.66 11.34 7.32 11 8 C9.5459375 8.1546875 9.5459375 8.1546875 8.0625 8.3125 C6.5465625 8.6528125 6.5465625 8.6528125 5 9 C3.54708727 11.46255685 3.54708727 11.46255685 3 14 C2.34 14 1.68 14 1 14 C-0.44209192 9.49346274 -1.34223148 5.79124078 -1 1 C-0.67 0.67 -0.34 0.34 0 0 Z " fill="#1B1819" transform="translate(173,154)"/>
<path d="M0 0 C1.32 0 2.64 0 4 0 C4.99 4.29 5.98 8.58 7 13 C5.68 12.67 4.36 12.34 3 12 C3 11.34 3 10.68 3 10 C-1.455 10.495 -1.455 10.495 -6 11 C-4.54780852 6.88545746 -2.71245508 3.4304579 0 0 Z " fill="#51474A" transform="translate(269,130)"/>
<path d="M0 0 C0.99 0.33 1.98 0.66 3 1 C3.66 4.63 4.32 8.26 5 12 C1.34167128 11.08541782 -0.87701826 9.99523834 -4 8 C-4 9.98 -4 11.96 -4 14 C-4.66 14 -5.32 14 -6 14 C-7.29243536 9.8803623 -8.26252625 6.33168317 -8 2 C-5.0280615 3.12451727 -2.66559313 4.22293791 0 6 C0 4.02 0 2.04 0 0 Z " fill="#100E0F" transform="translate(223,131)"/>
<path d="M0 0 C1.19109375 0.00773438 1.19109375 0.00773438 2.40625 0.015625 C3.2003125 0.01046875 3.994375 0.0053125 4.8125 0 C6.90625 0.265625 6.90625 0.265625 8.90625 2.265625 C8.90625 6.80278085 8.12248684 9.46578493 5.03125 12.703125 C2.68394922 14.96195967 2.31767407 15.265625 -1.09375 15.265625 C-0.09314416 13.03350427 0.68304757 11.46307331 2.53125 9.828125 C4.17873244 8.27460156 4.17873244 8.27460156 4.09375 5.578125 C4.031875 4.815 3.97 4.051875 3.90625 3.265625 C0.34844804 3.87553391 -2.7766089 4.8439931 -6.09375 6.265625 C-3.3692656 0.42744414 -3.3692656 0.42744414 0 0 Z " fill="#171515" transform="translate(243.09375,233.734375)"/>
<path d="M0 0 C0 0.66 0 1.32 0 2 C-0.639375 2.28875 -1.27875 2.5775 -1.9375 2.875 C-4.15206079 3.82823451 -4.15206079 3.82823451 -5 6 C-3.02 5.67 -1.04 5.34 1 5 C1 5.66 1 6.32 1 7 C-0.32 7.33 -1.64 7.66 -3 8 C-3 8.99 -3 9.98 -3 11 C-0.69 10.34 1.62 9.68 4 9 C3 12 3 12 0.625 13.1875 C-2 14 -2 14 -5 14 C-5.69937202 12.5682384 -6.38412718 11.12932968 -7.0625 9.6875 C-7.44535156 8.88699219 -7.82820313 8.08648437 -8.22265625 7.26171875 C-9 5 -9 5 -8 2 C-5.10441559 0.5522078 -3.25811062 0 0 0 Z " fill="#171415" transform="translate(301,347)"/>
<path d="M0 0 C0.73046875 1.84765625 0.73046875 1.84765625 1.1875 4.0625 C1.34605469 4.79597656 1.50460937 5.52945313 1.66796875 6.28515625 C1.77753906 6.85105469 1.88710938 7.41695312 2 8 C1.01 7.67 0.02 7.34 -1 7 C-1.33 6.01 -1.66 5.02 -2 4 C-2.66 3.67 -3.32 3.34 -4 3 C-3.67 4.98 -3.34 6.96 -3 9 C-3.66 9 -4.32 9 -5 9 C-5.33 7.35 -5.66 5.7 -6 4 C-6.99 4 -7.98 4 -9 4 C-8.67 6.31 -8.34 8.62 -8 11 C-8.66 11 -9.32 11 -10 11 C-11.49821059 7.62902617 -12 5.79557881 -12 2 C-10.56656 1.46809459 -9.12804633 0.94984742 -7.6875 0.4375 C-6.48673828 0.00244141 -6.48673828 0.00244141 -5.26171875 -0.44140625 C-3 -1 -3 -1 0 0 Z " fill="#201C1D" transform="translate(369,211)"/>
<path d="M0 0 C2 2 2 2 2.08203125 4.0234375 C1.15680012 12.09574389 1.15680012 12.09574389 -2 15 C-2.66 15 -3.32 15 -4 15 C-3.39174965 10.65535464 -2.73832608 6.32448133 -2 2 C-6.95 3.485 -6.95 3.485 -12 5 C-12.66 4.34 -13.32 3.68 -14 3 C-9.08953041 0.59487204 -5.59608536 -0.54863582 0 0 Z " fill="#1D1A1B" transform="translate(309,210)"/>
<path d="M0 0 C0.99 0.33 1.98 0.66 3 1 C2.175 1.7425 1.35 2.485 0.5 3.25 C-2.44844853 5.87387385 -2.44844853 5.87387385 -2 10 C-1.2575 9.690625 -0.515 9.38125 0.25 9.0625 C2.50692176 8.1905075 4.6450153 7.52332993 7 7 C7 7.99 7 8.98 7 10 C2.15928144 14.05269461 2.15928144 14.05269461 -1.75 13.875 C-4 13 -4 13 -6 11 C-6.5 8.1875 -6.5 8.1875 -6 5 C-4.17362411 2.72999337 -2.51068839 1.62456308 0 0 Z " fill="#1D191A" transform="translate(349,179)"/>
<path d="M0 0 C0.99 0.33 1.98 0.66 3 1 C2.2884375 2.0828125 2.2884375 2.0828125 1.5625 3.1875 C0.05847097 5.89475226 -0.56599182 7.96194275 -1 11 C2.40320742 9.98823563 3.75725331 9.35156418 5.8125 6.375 C6.4003125 5.199375 6.4003125 5.199375 7 4 C7.66 4.33 8.32 4.66 9 5 C6.97247706 12.01834862 6.97247706 12.01834862 4 14 C1.15503228 14.42674516 -0.36352369 14.36066991 -2.875 12.9375 C-4.70191247 9.79115075 -3.84160654 7.42654091 -3 4 C-1.4375 1.5625 -1.4375 1.5625 0 0 Z " fill="#151213" transform="translate(312,145)"/>
<path d="M0 0 C0.33 0.99 0.66 1.98 1 3 C-1.31 3 -3.62 3 -6 3 C-6 4.98 -6 6.96 -6 9 C-4.35 9.33 -2.7 9.66 -1 10 C-1 8.68 -1 7.36 -1 6 C-0.34 6 0.32 6 1 6 C1 7.98 1 9.96 1 12 C-0.45792884 12.05399736 -1.91642712 12.09279177 -3.375 12.125 C-4.18710938 12.14820313 -4.99921875 12.17140625 -5.8359375 12.1953125 C-8 12 -8 12 -10 10 C-10.30078125 8.125 -10.30078125 8.125 -10.3125 6 C-10.32925781 5.29875 -10.34601563 4.5975 -10.36328125 3.875 C-10.24339844 3.25625 -10.12351563 2.6375 -10 2 C-6.3558226 -0.4294516 -4.28758728 -0.16179575 0 0 Z " fill="#181616" transform="translate(251,357)"/>
<path d="M0 0 C1.77297832 5.31893496 -1.97650113 10.24515752 -4.25 15.125 C-5.00603516 16.80916016 -5.00603516 16.80916016 -5.77734375 18.52734375 C-6.51404297 20.12642578 -6.51404297 20.12642578 -7.265625 21.7578125 C-7.71711914 22.7389502 -8.16861328 23.72008789 -8.63378906 24.73095703 C-10 27 -10 27 -13 28 C-11.00724316 21.65501675 -8.64663574 15.57168083 -5.9375 9.5 C-5.4105957 8.28570312 -5.4105957 8.28570312 -4.87304688 7.046875 C-4.53208984 6.27859375 -4.19113281 5.5103125 -3.83984375 4.71875 C-3.38146118 3.68137695 -3.38146118 3.68137695 -2.91381836 2.62304688 C-2 1 -2 1 0 0 Z " fill="#171515" transform="translate(305,276)"/>
<path d="M0 0 C0.66 0.33 1.32 0.66 2 1 C2 1.66 2 2.32 2 3 C1.01 3.66 0.02 4.32 -1 5 C-1 6.32 -1 7.64 -1 9 C0.65 9.33 2.3 9.66 4 10 C4.66 8.68 5.32 7.36 6 6 C5.01 5.67 4.02 5.34 3 5 C3.33 4.34 3.66 3.68 4 3 C6.475 3.99 6.475 3.99 9 5 C8.64505955 7.62655933 8.27538036 9.57968261 6.8125 11.8125 C4.11075568 13.58260835 2.15326426 13.39415803 -1 13 C-2.875 11.875 -2.875 11.875 -4 10 C-4.4375 7.0625 -4.4375 7.0625 -4 4 C-2 1.625 -2 1.625 0 0 Z " fill="#141212" transform="translate(147,183)"/>
<path d="M0 0 C-2.5769883 2.5769883 -5.47970317 3.5709883 -8.8125 4.875 C-9.47813965 5.13676025 -10.1437793 5.39852051 -10.82958984 5.66821289 C-28.96486232 12.69116495 -28.96486232 12.69116495 -35 11 C-31.9148887 9.35557747 -28.82245102 8.20568971 -25.5 7.125 C-23.9221875 6.60679687 -23.9221875 6.60679687 -22.3125 6.078125 C-20.10416667 5.359375 -17.89583333 4.640625 -15.6875 3.921875 C-14.635625 3.57640625 -13.58375 3.2309375 -12.5 2.875 C-11.5409375 2.56304687 -10.581875 2.25109375 -9.59375 1.9296875 C-7.01724941 1.0821913 -7.01724941 1.0821913 -4.84375 -0.1796875 C-3 -1 -3 -1 0 0 Z " fill="#282324" transform="translate(207,249)"/>
<path d="M0 0 C1.9375 1.375 1.9375 1.375 3 3 C3 3.99 3 4.98 3 6 C2.01 6 1.02 6 0 6 C-0.33 5.01 -0.66 4.02 -1 3 C-2.65 3 -4.3 3 -6 3 C-6 4.65 -6 6.3 -6 8 C-5.01 8.33 -4.02 8.66 -3 9 C-3 9.99 -3 10.98 -3 12 C-5.375 11.6875 -5.375 11.6875 -8 11 C-10.31282587 7.53076119 -10.42478586 6.07794425 -10 2 C-7.65219892 -2.28128432 -4.20764384 -1.05191096 0 0 Z " fill="#201C1D" transform="translate(332,158)"/>
<path d="M0 0 C5.53846154 -0.36923077 5.53846154 -0.36923077 7.875 1.5 C8.24625 1.995 8.6175 2.49 9 3 C8.01 3.495 8.01 3.495 7 4 C4.375 3.0625 4.375 3.0625 2 2 C2.845625 2.721875 3.69125 3.44375 4.5625 4.1875 C7 7 7 7 6.8125 9.8125 C6.544375 10.534375 6.27625 11.25625 6 12 C0.375 12.25 0.375 12.25 -3 10 C-3 9.34 -3 8.68 -3 8 C-0.69 8.66 1.62 9.32 4 10 C3.154375 9.278125 2.30875 8.55625 1.4375 7.8125 C-1 5 -1 5 -0.8125 2.1875 C-0.544375 1.465625 -0.27625 0.74375 0 0 Z " fill="#171415" transform="translate(283,134)"/>
<path d="M0 0 C2.97 0 5.94 0 9 0 C9 0.66 9 1.32 9 2 C7.02 2 5.04 2 3 2 C3 2.99 3 3.98 3 5 C4.98 5 6.96 5 9 5 C9 5.66 9 6.32 9 7 C7.35 7.33 5.7 7.66 4 8 C3.67 9.65 3.34 11.3 3 13 C2.34 13 1.68 13 1 13 C-0.32229189 10.35541621 -0.09677194 8.32238699 -0.0625 5.375 C-0.05347656 4.37210938 -0.04445312 3.36921875 -0.03515625 2.3359375 C-0.02355469 1.56507813 -0.01195312 0.79421875 0 0 Z " fill="#363031" transform="translate(233,129)"/>
<path d="M0 0 C0.66 0 1.32 0 2 0 C0.51991304 5.00113594 -1.6318336 9.32915597 -4.125 13.875 C-4.49753906 14.56335938 -4.87007813 15.25171875 -5.25390625 15.9609375 C-6.16499526 17.64294798 -7.08190315 19.32180436 -8 21 C-8.66 21 -9.32 21 -10 21 C-9.4462522 15.89545207 -6.97407204 12.03424443 -4.4375 7.6875 C-4.01275391 6.94693359 -3.58800781 6.20636719 -3.15039062 5.44335938 C-2.10648347 3.62531882 -1.05407808 1.81216252 0 0 Z " fill="#181516" transform="translate(335,213)"/>
<path d="M0 0 C3.55780196 0.60990891 6.6828589 1.5783681 10 3 C9.67 3.99 9.34 4.98 9 6 C7.68 5.67 6.36 5.34 5 5 C4.690625 5.94875 4.38125 6.8975 4.0625 7.875 C3 11 3 11 2 13 C1.01 12.67 0.02 12.34 -1 12 C-0.76023437 11.46890625 -0.52046875 10.9378125 -0.2734375 10.390625 C1.72697913 6.04606917 1.72697913 6.04606917 1.1875 1.5 C0.5996875 0.7575 0.5996875 0.7575 0 0 Z " fill="#1E1A1C" transform="translate(297,138)"/>
<path d="M0 0 C-0.2475 0.721875 -0.495 1.44375 -0.75 2.1875 C-1.33390113 5.17352693 -1.33390113 5.17352693 1 7.625 C1.66 8.40875 2.32 9.1925 3 10 C2.67 10.99 2.34 11.98 2 13 C1.236875 12.195625 0.47375 11.39125 -0.3125 10.5625 C-3.38782604 7.63021238 -4.78865621 7 -9 7 C-7.51191431 2.53574293 -4.79253508 0 0 0 Z " fill="#161314" transform="translate(328,330)"/>
<path d="M0 0 C0.33 0 0.66 0 1 0 C1.36625971 4.51720311 1.36625971 4.51720311 -0.375 6.8125 C-2 8 -2 8 -4 8 C-4 7.01 -4 6.02 -4 5 C-4.52078125 5.16371094 -5.0415625 5.32742188 -5.578125 5.49609375 C-8.6756875 6.14058659 -11.58841094 6.09411589 -14.75 6.0625 C-15.92046875 6.05347656 -17.0909375 6.04445313 -18.296875 6.03515625 C-19.18890625 6.02355469 -20.0809375 6.01195312 -21 6 C-20.67 5.34 -20.34 4.68 -20 4 C-18.80761719 3.96261719 -17.61523438 3.92523438 -16.38671875 3.88671875 C-14.820281 3.82105968 -13.25387616 3.75461232 -11.6875 3.6875 C-10.90181641 3.66494141 -10.11613281 3.64238281 -9.30664062 3.61914062 C-8.54931641 3.58369141 -7.79199219 3.54824219 -7.01171875 3.51171875 C-6.31522217 3.48553467 -5.61872559 3.45935059 -4.90112305 3.43237305 C-2.50436868 2.8872784 -1.61055385 1.80239351 0 0 Z " fill="#2F2A2B" transform="translate(308,269)"/>
<path d="M0 0 C-0.66 1.65 -1.32 3.3 -2 5 C-1.401875 5.2475 -0.80375 5.495 -0.1875 5.75 C2.28647521 7.16370012 3.43370255 8.65055383 5 11 C4.01 11.33 3.02 11.66 2 12 C0.07184513 10.84310708 -1.54786924 9.46052887 -3.28125 8.03125 C-3.8484375 7.6909375 -4.415625 7.350625 -5 7 C-5.99 7.33 -6.98 7.66 -8 8 C-6.48291727 4.46014029 -4.24676932 0 0 0 Z " fill="#282324" transform="translate(165,163)"/>
<path d="M0 0 C3.34998521 1.11666174 3.79340222 1.74694925 5.6875 4.5625 C6.34298828 5.52349609 6.34298828 5.52349609 7.01171875 6.50390625 C7.33785156 6.99761719 7.66398437 7.49132812 8 8 C6 8 4 8 2 8 C0.34496905 9.0772721 0.34496905 9.0772721 -1.1875 10.5 C-2.115625 11.325 -3.04375 12.15 -4 13 C-4 11.68 -4 10.36 -4 9 C-3.319375 8.34 -2.63875 7.68 -1.9375 7 C-1.298125 6.34 -0.65875 5.68 0 5 C-0.22757731 2.83700789 -0.22757731 2.83700789 -1 1 C-0.67 0.67 -0.34 0.34 0 0 Z " fill="#191617" transform="translate(339,166)"/>
<path d="M0 0 C2.71372659 2.00579792 3.03939963 3.17275223 3.8125 6.5625 C3.874375 7.696875 3.93625 8.83125 4 10 C3.34 10.66 2.68 11.32 2 12 C1.01 12 0.02 12 -1 12 C-2.32087692 9.82443801 -3.07112439 8.56899513 -2.75 6 C-1.96713323 3.91235527 -1.05252193 1.96470761 0 0 Z " fill="#211D1E" transform="translate(360,194)"/>
<path d="M0 0 C3.875 4.75 3.875 4.75 5 7 C8.465 6.505 8.465 6.505 12 6 C12 6.66 12 7.32 12 8 C8.04 9.98 8.04 9.98 4 12 C2.9944239 10.54550599 1.99569565 9.08627557 1 7.625 C0.443125 6.81289062 -0.11375 6.00078125 -0.6875 5.1640625 C-2 3 -2 3 -2 1 C-1.34 0.67 -0.68 0.34 0 0 Z " fill="#1C191A" transform="translate(185,146)"/>
<path d="M0 0 C0.66 0 1.32 0 2 0 C1.125 6.75 1.125 6.75 0 9 C-3.3 8.01 -6.6 7.02 -10 6 C-10 5.01 -10 4.02 -10 3 C-5.545 3.99 -5.545 3.99 -1 5 C-0.67 3.35 -0.34 1.7 0 0 Z " fill="#171515" transform="translate(141,213)"/>
<path d="M0 0 C1.32 0 2.64 0 4 0 C4 1.65 4 3.3 4 5 C3.01 5.495 3.01 5.495 2 6 C1.67 5.34 1.34 4.68 1 4 C0.67 5.65 0.34 7.3 0 9 C-0.99 9 -1.98 9 -3 9 C-3 9.66 -3 10.32 -3 11 C-3.99 11 -4.98 11 -6 11 C-4.54780852 6.88545746 -2.71245508 3.4304579 0 0 Z " fill="#121010" transform="translate(269,130)"/>
<path d="M0 0 C0 0.33 0 0.66 0 1 C-0.556875 1.10957031 -1.11375 1.21914062 -1.6875 1.33203125 C-8.47516697 2.74230665 -14.86663892 4.67776275 -21 8 C-20.00225828 5.44127528 -19.35661889 4.21686284 -16.9765625 2.76953125 C-16.20054687 2.45371094 -15.42453125 2.13789063 -14.625 1.8125 C-13.85414063 1.48894531 -13.08328125 1.16539062 -12.2890625 0.83203125 C-7.69267858 -0.83866802 -4.862163 -0.99453334 0 0 Z " fill="#3A3335" transform="translate(180,221)"/>
<path d="M0 0 C1 3 1 3 -0.21484375 5.91796875 C-0.78332031 6.99691406 -1.35179687 8.07585937 -1.9375 9.1875 C-2.50339844 10.27417969 -3.06929688 11.36085938 -3.65234375 12.48046875 C-4.09707031 13.31191406 -4.54179687 14.14335937 -5 15 C-5.99 15 -6.98 15 -8 15 C-6.5320383 9.66195747 -3.98519676 3.98519676 0 0 Z " fill="#161314" transform="translate(315,255)"/>
<path d="M0 0 C2.625 0.375 2.625 0.375 5 1 C5 2.98 5 4.96 5 7 C2.03 6.505 2.03 6.505 -1 6 C-1.625 4.125 -1.625 4.125 -2 2 C-1.34 1.34 -0.68 0.68 0 0 Z " fill="#F4D6DE" transform="translate(135,211)"/>
<path d="M0 0 C1.32 0.99 2.64 1.98 4 3 C3.67 4.32 3.34 5.64 3 7 C1.1875 7.625 1.1875 7.625 -1 8 C-1.99 7.34 -2.98 6.68 -4 6 C-3.6875 4.125 -3.6875 4.125 -3 2 C-2.01 1.34 -1.02 0.68 0 0 Z " fill="#E4C8D0" transform="translate(149,186)"/>
<path d="M0 0 C2.31 0.33 4.62 0.66 7 1 C5.68 1.33 4.36 1.66 3 2 C3.185625 2.9075 3.37125 3.815 3.5625 4.75 C3.95734621 7.68314324 3.94691572 9.2644657 3 12 C2.01 12 1.02 12 0 12 C0 8.04 0 4.08 0 0 Z " fill="#1D191A" transform="translate(248,128)"/>
<path d="M0 0 C0.33 0.66 0.66 1.32 1 2 C2.423125 1.690625 2.423125 1.690625 3.875 1.375 C5.421875 1.189375 5.421875 1.189375 7 1 C9 3 9 3 9 7 C8.01 7 7.02 7 6 7 C6 6.01 6 5.02 6 4 C2.4780279 3.91995518 -0.61981469 3.95994298 -4 5 C-2.25 1.125 -2.25 1.125 0 0 Z " fill="#121010" transform="translate(226,361)"/>
<path d="M0 0 C0.66 0.33 1.32 0.66 2 1 C2 5.62 2 10.24 2 15 C1.01 14.67 0.02 14.34 -1 14 C-1.02694851 12.04174127 -1.04637218 10.08337774 -1.0625 8.125 C-1.07410156 7.03445313 -1.08570313 5.94390625 -1.09765625 4.8203125 C-1 2 -1 2 0 0 Z " fill="#0E0C0D" transform="translate(198,343)"/>
<path d="M0 0 C1.1796875 1.609375 1.1796875 1.609375 2 4 C0.8828125 7.015625 0.8828125 7.015625 -0.875 10.25 C-1.44992188 11.32765625 -2.02484375 12.4053125 -2.6171875 13.515625 C-3.30167969 14.74539063 -3.30167969 14.74539063 -4 16 C-4.66 16 -5.32 16 -6 16 C-5.37183502 12.05050296 -4.1354471 8.80107972 -2.4375 5.1875 C-1.98246094 4.21167969 -1.52742187 3.23585938 -1.05859375 2.23046875 C-0.70925781 1.49441406 -0.35992187 0.75835937 0 0 Z " fill="#2A2526" transform="translate(155,279)"/>
<path d="M0 0 C0.99 0 1.98 0 3 0 C3.50833591 1.24663331 4.00631145 2.49749387 4.5 3.75 C4.7784375 4.44609375 5.056875 5.1421875 5.34375 5.859375 C6 8 6 8 6 12 C3 11 3 11 2.05078125 9.2578125 C1.80714844 8.55398437 1.56351563 7.85015625 1.3125 7.125 C1.06113281 6.42632812 0.80976563 5.72765625 0.55078125 5.0078125 C0 3 0 3 0 0 Z " fill="#1D191A" transform="translate(205,136)"/>
<path d="M0 0 C3.63 1.65 7.26 3.3 11 5 C10.67 5.99 10.34 6.98 10 8 C6.37 6.35 2.74 4.7 -1 3 C-0.67 2.01 -0.34 1.02 0 0 Z " fill="#181516" transform="translate(137,198)"/>
<path d="M0 0 C3.99500618 1.3697164 6.80009492 3.25722422 10 6 C9.67 6.99 9.34 7.98 9 9 C5.01618925 6.83735988 2.11016455 4.28788824 -1 1 C-0.67 0.67 -0.34 0.34 0 0 Z " fill="#181516" transform="translate(152,175)"/>
<path d="M0 0 C0 0.33 0 0.66 0 1 C-2.05762909 1.70194375 -4.12136031 2.38601697 -6.1875 3.0625 C-7.91033203 3.63677734 -7.91033203 3.63677734 -9.66796875 4.22265625 C-12.97454508 4.99406151 -14.79082314 4.96093996 -18 4 C-6.11698745 -2.17054393 -6.11698745 -2.17054393 0 0 Z " fill="#3C3436" transform="translate(190,256)"/>
<path d="M0 0 C1.98 0.66 3.96 1.32 6 2 C5.34 3.65 4.68 5.3 4 7 C3.34 7 2.68 7 2 7 C2 6.34 2 5.68 2 5 C1.34 5 0.68 5 0 5 C-0.33 5.66 -0.66 6.32 -1 7 C-1.04254356 5.00045254 -1.04080783 2.99958364 -1 1 C-0.67 0.67 -0.34 0.34 0 0 Z " fill="#51474A" transform="translate(173,154)"/>
<path d="M0 0 C0.66 0.33 1.32 0.66 2 1 C1.67 3.97 1.34 6.94 1 10 C0.01 9.01 -0.98 8.02 -2 7 C-2.66 7 -3.32 7 -4 7 C-2.79618552 4.50638429 -1.54571278 2.31856917 0 0 Z " fill="#0E0C0D" transform="translate(178,330)"/>
<path d="M0 0 C2.97 0 5.94 0 9 0 C9 0.66 9 1.32 9 2 C7.02 2 5.04 2 3 2 C3 2.99 3 3.98 3 5 C2.34 5 1.68 5 1 5 C0.67 5.66 0.34 6.32 0 7 C0 4.69 0 2.38 0 0 Z " fill="#131111" transform="translate(233,129)"/>
<path d="M0 0 C0.33 1.32 0.66 2.64 1 4 C-0.32 4.33 -1.64 4.66 -3 5 C-3.33 4.01 -3.66 3.02 -4 2 C-4.66 2.66 -5.32 3.32 -6 4 C-6.99 4 -7.98 4 -9 4 C-6.73455663 -1.01633889 -5.27613404 -1.24961069 0 0 Z " fill="#2E282A" transform="translate(180,337)"/>
<path d="M0 0 C0.66 0.33 1.32 0.66 2 1 C0.49776416 5.20626034 -2.28550034 6.73900021 -6 9 C-6 6 -6 6 -4.6875 4.39453125 C-4.130625 3.87246094 -3.57375 3.35039062 -3 2.8125 C-2.443125 2.28269531 -1.88625 1.75289063 -1.3125 1.20703125 C-0.6628125 0.60955078 -0.6628125 0.60955078 0 0 Z " fill="#1A1718" transform="translate(227,258)"/>
<path d="M0 0 C2.00948183 0.01778303 4.01668765 0.16786374 6.01953125 0.33203125 C3.50122378 3.45473251 2.29337635 4.27726223 -1.73046875 5.08203125 C-3.33921875 5.20578125 -3.33921875 5.20578125 -4.98046875 5.33203125 C-3.05235036 0.51173527 -3.05235036 0.51173527 0 0 Z " fill="#0C0A0B" transform="translate(167.98046875,259.66796875)"/>
<path d="M0 0 C0.99 0.33 1.98 0.66 3 1 C2.54625 1.7425 2.0925 2.485 1.625 3.25 C0.31359204 5.46930578 -0.88280803 7.67967822 -2 10 C-2.66 8.68 -3.32 7.36 -4 6 C-2.68 4.02 -1.36 2.04 0 0 Z " fill="#1F1B1C" transform="translate(312,145)"/>
<path d="M0 0 C0 1.65 0 3.3 0 5 C-2.97 4.505 -2.97 4.505 -6 4 C-5.67 3.01 -5.34 2.02 -5 1 C-3 0 -3 0 0 0 Z " fill="#6D6063" transform="translate(231,358)"/>
<path d="M0 0 C2.475 0.495 2.475 0.495 5 1 C4.67 2.32 4.34 3.64 4 5 C2.68 5 1.36 5 0 5 C0 3.35 0 1.7 0 0 Z " fill="#CCB3BA" transform="translate(251,130)"/>
<path d="M0 0 C0.66 0 1.32 0 2 0 C2 1.98 2 3.96 2 6 C-0.31 6 -2.62 6 -5 6 C-5 5.34 -5 4.68 -5 4 C-3.35 4 -1.7 4 0 4 C0 2.68 0 1.36 0 0 Z " fill="#070607" transform="translate(250,363)"/>
<path d="M0 0 C0.66 0 1.32 0 2 0 C1.46930939 3.82097239 0.50298434 6.06171403 -2 9 C-2.6875 7.3125 -2.6875 7.3125 -3 5 C-1.6875 2.25 -1.6875 2.25 0 0 Z " fill="#322C2D" transform="translate(180,231)"/>
<path d="M0 0 C0.66 0 1.32 0 2 0 C0.94124926 3.40312738 -0.00902154 6.01353231 -2 9 C-2.66 9 -3.32 9 -4 9 C-2.94124926 5.59687262 -1.99097846 2.98646769 0 0 Z " fill="#090808" transform="translate(335,213)"/>
<path d="M0 0 C0 0.33 0 0.66 0 1 C-4.95 2.485 -4.95 2.485 -10 4 C-10.66 3.34 -11.32 2.68 -12 2 C-4.71428571 -1.57142857 -4.71428571 -1.57142857 0 0 Z " fill="#302A2C" transform="translate(307,211)"/>
<path d="M0 0 C0.66 0 1.32 0 2 0 C1.46930939 3.82097239 0.50298434 6.06171403 -2 9 C-3 6 -3 6 -1.5625 2.8125 C-1.046875 1.884375 -0.53125 0.95625 0 0 Z " fill="#0F0D0D" transform="translate(176,238)"/>
<path d="M0 0 C2.625 0.375 2.625 0.375 5 1 C-0.14285714 5.42857143 -0.14285714 5.42857143 -4 6 C-2.84826645 3.53199953 -1.95216435 1.95216435 0 0 Z " fill="#252022" transform="translate(241,234)"/>
<path d="M0 0 C1.875 1.3125 1.875 1.3125 2.625 3.4375 C2.7075 4.05625 2.79 4.675 2.875 5.3125 C1.885 5.3125 0.895 5.3125 -0.125 5.3125 C-0.455 4.3225 -0.785 3.3325 -1.125 2.3125 C-3.12516466 1.10367904 -3.12516466 1.10367904 -5.125 0.3125 C-2.125 -0.6875 -2.125 -0.6875 0 0 Z " fill="#2B2627" transform="translate(332.125,158.6875)"/>
<path d="M0 0 C0.99 0.33 1.98 0.66 3 1 C0.63707344 3.52588702 -0.66462511 4.88820837 -4 6 C-2.25 1.125 -2.25 1.125 0 0 Z " fill="#131111" transform="translate(354,186)"/>
<path d="M0 0 C0.66 0 1.32 0 2 0 C1.34 1.32 0.68 2.64 0 4 C-0.66 3.34 -1.32 2.68 -2 2 C-1.34 1.34 -0.68 0.68 0 0 Z M-4 4 C-3.34 4.66 -2.68 5.32 -2 6 C-3.98 6.99 -3.98 6.99 -6 8 C-5.34 6.68 -4.68 5.36 -4 4 Z " fill="#0F0E0E" transform="translate(163,163)"/>
<path d="M0 0 C0.99 0 1.98 0 3 0 C3 1.65 3 3.3 3 5 C1.68 4.67 0.36 4.34 -1 4 C-0.67 2.68 -0.34 1.36 0 0 Z " fill="#E8CBD4" transform="translate(358,198)"/>
<path d="M0 0 C0.99 0 1.98 0 3 0 C2.34 1.98 1.68 3.96 1 6 C0.01 6 -0.98 6 -2 6 C-1.34 4.02 -0.68 2.04 0 0 Z " fill="#262223" transform="translate(300,284)"/>
<path d="M0 0 C0.99 0.33 1.98 0.66 3 1 C2.34 2.98 1.68 4.96 1 7 C0.01 6.67 -0.98 6.34 -2 6 C-1.34 4.02 -0.68 2.04 0 0 Z " fill="#262223" transform="translate(324,233)"/>
<path d="M0 0 C2.475 0.99 2.475 0.99 5 2 C4.67 2.99 4.34 3.98 4 5 C3.34 5 2.68 5 2 5 C2 4.34 2 3.68 2 3 C1.01 2.67 0.02 2.34 -1 2 C-0.67 1.34 -0.34 0.68 0 0 Z " fill="#272324" transform="translate(151,186)"/>
<path d="M0 0 C0 0.66 0 1.32 0 2 C-1.98 2.99 -3.96 3.98 -6 5 C-6.33 4.01 -6.66 3.02 -7 2 C-4.35261084 0.5393715 -3.10551666 0 0 0 Z " fill="#2D2729" transform="translate(197,152)"/>
</svg>
